<?xml version="1.0" encoding="UTF-8"?>
<svg version="1.1" xmlns="http://www.w3.org/2000/svg" width="1920" height="1080">
<path d="M0 0 C99 0 198 0 300 0 C361.90861261 123.81722523 361.90861261 123.81722523 366.47329807 133.64812088 C377.61131141 157.57344468 389.4432589 181.14911891 401.2685864 204.73996067 C403.92555333 210.0424489 406.57867028 215.34686233 409.23187482 220.65123376 C414.47996709 231.1430899 419.73159178 241.63317345 424.9855957 252.12207031 C430.05487725 262.24221438 435.12244399 272.36321411 440.18774414 282.48535156 C440.50135014 283.11203811 440.81495614 283.73872466 441.13806535 284.38440171 C442.71324377 287.53214595 444.2883882 290.67990719 445.86351502 293.82767725 C448.93673715 299.96925425 452.01017874 306.11072142 455.08372498 312.25213623 C455.38127756 312.84669195 455.67883015 313.44124767 455.98539948 314.05382022 C463.4342912 328.93765895 470.88648833 343.8198425 478.33966064 358.70153809 C480.49686565 363.00883602 482.65367765 367.31633053 484.81024623 371.62394714 C485.98659732 373.97323356 487.16350406 376.32224105 488.34044075 378.67123413 C489.0602931 380.10887435 489.78012212 381.54652625 490.49992371 382.98419189 C490.81970391 383.62203904 491.13948411 384.25988619 491.46895462 384.91706204 C493.96325087 389.90114785 496.36686189 394.92357039 498.734375 399.96875 C499.98396094 402.59521585 501.23658463 405.22022026 502.48925781 407.84521484 C503.32843932 409.61230619 504.16180008 411.38217377 504.98925781 413.15478516 C517.96754418 440.90906055 535.8288267 460.94672808 565 472 C593.66678089 481.23268561 625.11375776 479.1608388 654.85866976 479.1343255 C658.71009155 479.13172742 662.56151142 479.13415942 666.41293335 479.13571167 C672.86871783 479.13751183 679.32449073 479.13518408 685.78027344 479.13037109 C693.1648338 479.12492805 700.54936653 479.12670028 707.93392622 479.1321975 C714.36287181 479.13678536 720.79180924 479.137352 727.22075593 479.13475883 C731.02178483 479.13322739 734.8228009 479.13291328 738.62382889 479.13629532 C752.87517747 479.14717692 767.116913 479.09355425 781.36083984 478.56982422 C782.89296081 478.51488391 782.89296081 478.51488391 784.45603371 478.45883369 C812.90454552 477.26787723 839.4666807 470.50665395 861 451 C861.98097656 450.24074219 862.96195313 449.48148437 863.97265625 448.69921875 C867.44198705 445.82144555 869.72026914 442.40277909 872.125 438.625 C872.54136719 437.99078125 872.95773437 437.3565625 873.38671875 436.703125 C876.08808214 432.55369535 878.5724196 428.31460646 881 424 C881.61359375 422.9378125 882.2271875 421.875625 882.859375 420.78125 C889.72936012 408.85813532 896.18197195 396.81723587 902.07006836 384.37890625 C907.12145764 373.765874 912.33118083 363.24004767 917.62091255 352.74414062 C919.11624305 349.77607961 920.60800518 346.80624812 922.09886169 343.8359375 C926.32747451 335.41181137 930.55989595 326.98961315 934.80004883 318.57128906 C937.41791851 313.37320322 940.02992022 308.17220479 942.63819695 302.96929932 C943.62513412 301.00344864 944.61428676 299.03870852 945.60574532 297.07513428 C946.98431596 294.34449611 948.35539135 291.61021491 949.72485352 288.875 C950.13051544 288.07603302 950.53617737 287.27706604 950.95413208 286.45388794 C952.64826793 283.05347859 954.14566893 279.81011738 955.12657166 276.1328125 C956.04405091 272.84199819 957.50418593 270.96205602 959.5703125 268.296875 C961.90791638 264.54138024 963.34736461 260.38460394 964.85644531 256.2421875 C967.16443588 250.05386807 967.16443588 250.05386807 970 248 C970.66 248 971.32 248 972 248 C972.24621094 246.70835937 972.49242187 245.41671875 972.74609375 244.0859375 C973.89597923 238.93308235 975.82561775 234.3895974 978.0625 229.625 C978.45663086 228.77156006 978.85076172 227.91812012 979.25683594 227.03881836 C980.08221405 225.25600817 980.91152363 223.47501319 981.74462891 221.69580078 C982.98913241 219.0233372 984.20597343 216.33968273 985.41796875 213.65234375 C986.19449014 211.95535262 986.97180458 210.25872411 987.75 208.5625 C988.10199463 207.77633301 988.45398926 206.99016602 988.81665039 206.18017578 C989.16074951 205.44138184 989.50484863 204.70258789 989.859375 203.94140625 C990.15295898 203.29888916 990.44654297 202.65637207 990.74902344 201.99438477 C992 200 992 200 994.45556641 197.68164062 C997.36151351 194.6189921 998.42069733 192.1070887 999.8515625 188.15234375 C1002.90036032 180.04613939 1006.55887297 172.33062538 1010.375 164.5625 C1011.00306634 163.27301146 1011.63067087 161.98329789 1012.2578125 160.69335938 C1017.80662661 149.30041914 1023.42840676 137.94135198 1029.25869751 126.68959045 C1030.69696855 123.91078461 1032.12382643 121.12620017 1033.54931641 118.34082031 C1034.27893112 116.92265863 1035.0141496 115.50736864 1035.75439453 114.09472656 C1036.84340209 112.01317586 1037.91177486 109.92214516 1038.9765625 107.828125 C1039.3117691 107.19900208 1039.64697571 106.56987915 1039.99234009 105.92169189 C1041.02233717 103.95472566 1041.02233717 103.95472566 1042 101 C1041.34190571 98.60174515 1041.34190571 98.60174515 1040 97 C1041.32 97 1042.64 97 1044 97 C1048.95 87.1 1048.95 87.1 1054 77 C1054.33 77 1054.66 77 1055 77 C1055 407.99 1055 738.98 1055 1080 C969.86 1080 884.72 1080 797 1080 C788.09 1062.18 779.18 1044.36 770 1026 C768.02 1024.02 768.02 1024.02 766 1022 C766.66 1022 767.32 1022 768 1022 C764.04 1014.08 760.08 1006.16 756 998 C755.34 998.33 754.68 998.66 754 999 C753.01 998.34 752.02 997.68 751 997 C750.8125 994.0625 750.8125 994.0625 751 991 C751 987.33038296 749.93408154 985.51942338 748.27783203 982.24682617 C747.9884375 981.67081161 747.69904297 981.09479706 747.40087891 980.50132751 C746.44194483 978.5957538 745.47476215 976.69448576 744.5078125 974.79296875 C743.83935742 973.46673724 743.17155033 972.14017895 742.50436401 970.81330872 C740.7444762 967.31634043 738.97812901 963.82268105 737.2097168 960.33001709 C734.38516888 954.75101048 731.56645667 949.16909135 728.75521469 943.5833683 C727.77388892 941.63734911 726.78742628 939.69399605 725.80056763 937.7507782 C725.1938166 936.54774593 724.58726915 935.34461096 723.98095703 934.14135742 C723.45245148 933.09783615 722.92394592 932.05431488 722.37942505 930.97917175 C721.01526928 928.03297738 719.96351504 925.09787991 719 922 C717.35 921.67 715.7 921.34 714 921 C713.88986572 919.97382568 713.77973145 918.94765137 713.66625977 917.89038086 C713.01110094 914.06481988 711.98974173 911.24827207 710.33984375 907.75390625 C709.52567993 906.01355103 709.52567993 906.01355103 708.69506836 904.23803711 C708.10976217 903.01259526 707.52389624 901.78742062 706.9375 900.5625 C706.34269325 899.30565032 705.7483758 898.04856897 705.15454102 896.79125977 C703.98333949 894.31758737 702.80546501 891.84727605 701.62109375 889.37988281 C700.2373377 886.49483481 698.86704928 883.60391553 697.5 880.7109375 C696.81427912 879.28560104 696.12695701 877.86103299 695.4375 876.4375 C695.14029053 875.80851807 694.84308105 875.17953613 694.53686523 874.53149414 C692.8507728 871.12698647 691.25302885 869.00022124 688 867 C688.66 866.67 689.32 866.34 690 866 C689.24493164 864.53530273 689.24493164 864.53530273 688.47460938 863.04101562 C686.56510447 859.33627722 684.656892 855.63087429 682.74902344 851.92529297 C681.93100363 850.3369019 681.11265662 848.74867929 680.29394531 847.16064453 C676.04002037 838.9088663 671.81173324 830.64755353 667.68359375 822.33203125 C661.64010968 810.18611888 655.01625911 799.18837279 646 789 C645.55914063 788.49887695 645.11828125 787.99775391 644.6640625 787.48144531 C639.9075419 781.5111541 639.9075419 781.5111541 634 777 C634 776.34 634 775.68 634 775 C633.4740625 774.76667969 632.948125 774.53335938 632.40625 774.29296875 C629.22597762 772.58408862 626.40044234 770.4475975 623.5 768.3125 C611.18641879 759.43400373 597.19920475 750.69489446 582 748 C580.3603125 747.319375 580.3603125 747.319375 578.6875 746.625 C547.16067876 734.4441827 506.21992892 739.80805718 475 750 C474.34 750.33 473.68 750.66 473 751 C473 751.66 473 752.32 473 753 C471.68 753.33 470.36 753.66 469 754 C469 753.34 469 752.68 469 752 C448.37277077 761.26140754 423.32832125 772.84523703 414 795 C412.68 795 411.36 795 410 795 C409.72929688 795.86625 409.45859375 796.7325 409.1796875 797.625 C408.03134345 800.91032868 406.68685395 803.89183293 405.125 807 C404.82311768 807.60134766 404.52123535 808.20269531 404.21020508 808.82226562 C402.38425826 812.41593678 400.48039272 815.95566352 398.50390625 819.46875 C388.37373721 837.51847533 379.7248383 856.2428189 371 875 C370.69535828 875.65480347 370.39071655 876.30960693 370.07684326 876.98425293 C367.70333802 882.08801984 365.3348742 887.19410904 362.97290039 892.30322266 C357.99581127 903.05472793 352.91415094 913.7558957 347.83279419 924.45840454 C342.82222195 935.01402939 337.84622753 945.58411969 332.9375 956.1875 C329.3737039 963.88429059 325.80860011 971.57996023 322.1875 979.25 C321.87482178 979.91539795 321.56214355 980.5807959 321.23999023 981.26635742 C319.31361516 985.33314925 317.31780136 989.36074663 315.28997803 993.37797546 C310.45590455 1002.96753789 305.91545142 1012.67745285 301.4375 1022.4375 C300.6576998 1024.13198531 299.87774937 1025.82640148 299.09765625 1027.52075195 C293.22211694 1040.29300464 287.39247647 1053.08621212 281.59545898 1065.89428711 C281.29860703 1066.54959412 281.00175507 1067.20490112 280.69590759 1067.88006592 C279.90269526 1069.63156147 279.11048696 1071.38351164 278.31835938 1073.13549805 C277.25579526 1075.44421374 276.13659233 1077.72681533 275 1080 C109.34 1080 -56.32 1080 -227 1080 C-227.99 1077.69 -228.98 1075.38 -230 1073 C-230.99 1072.67 -231.98 1072.34 -233 1072 C-233.33 1071.01 -233.66 1070.02 -234 1069 C-233.34 1069 -232.68 1069 -232 1069 C-232.54140625 1067.41058594 -232.54140625 1067.41058594 -233.09375 1065.7890625 C-233.56265793 1064.40109501 -234.03139931 1063.01307125 -234.5 1061.625 C-234.73847656 1060.92632813 -234.97695313 1060.22765625 -235.22265625 1059.5078125 C-237 1054.2265625 -237 1054.2265625 -237 1052 C-237.93247559 1051.85316772 -237.93247559 1051.85316772 -238.88378906 1051.70336914 C-241 1051 -241 1051 -242.859375 1047.74609375 C-243.50339843 1046.31603752 -244.13269533 1044.87929123 -244.75 1043.4375 C-245.44341567 1041.88977378 -246.13878043 1040.34291955 -246.8359375 1038.796875 C-247.19010742 1038.00345703 -247.54427734 1037.21003906 -247.90917969 1036.39257812 C-249.6343023 1032.60873712 -251.49903143 1028.89829747 -253.375 1025.1875 C-253.70854492 1024.52484131 -254.04208984 1023.86218262 -254.38574219 1023.17944336 C-255.25571739 1021.45223412 -256.12775427 1019.72606373 -257 1018 C-257.3609375 1017.22785156 -257.721875 1016.45570313 -258.09375 1015.66015625 C-259.30135027 1013.44795748 -260.92770881 1012.38152746 -263 1011 C-262.34 1010.67 -261.68 1010.34 -261 1010 C-261.25056152 1009.50331818 -261.50112305 1009.00663635 -261.75927734 1008.49490356 C-264.35929356 1003.3390154 -266.95373856 998.18035229 -269.54492188 993.02001953 C-270.51353746 991.09286456 -271.48358582 989.16642905 -272.45507812 987.24072266 C-273.84880141 984.47745291 -275.23740231 981.71166226 -276.625 978.9453125 C-277.06247559 978.0806839 -277.49995117 977.2160553 -277.95068359 976.32522583 C-278.35109863 975.52454681 -278.75151367 974.7238678 -279.1640625 973.89892578 C-279.51936035 973.1927713 -279.8746582 972.48661682 -280.24072266 971.75906372 C-281 970 -281 970 -281 968 C-281.66 967.67 -282.32 967.34 -283 967 C-284.26163916 964.53995091 -285.42654682 962.07913581 -286.56640625 959.5625 C-290.87301493 950.27254201 -295.38840332 941.09642791 -299.96484375 931.9375 C-300.3243877 931.21763916 -300.68393166 930.49777832 -301.05437088 929.75610352 C-302.91976142 926.02236182 -304.78713079 922.28961588 -306.65600586 918.55761719 C-308.55570931 914.76390502 -310.45178198 910.96839152 -312.34689236 907.17238331 C-319.08764763 893.67361753 -325.8296918 880.18379742 -332.912323 866.8601532 C-335.97397199 861.09087806 -338.85881826 855.25920314 -341.5625 849.3125 C-342.01375244 848.32266113 -342.46500488 847.33282227 -342.92993164 846.31298828 C-349.7939631 831.01807006 -355.90210261 815.27696307 -360 799 C-360.495 801.475 -360.495 801.475 -361 804 C-361.99 803.67 -362.98 803.34 -364 803 C-364.33 799.37 -364.66 795.74 -365 792 C-364.01 792 -363.02 792 -362 792 C-362.13277344 791.19820312 -362.26554687 790.39640625 -362.40234375 789.5703125 C-363.82298669 780.42427548 -364.4484227 771.39139252 -364.88671875 762.15673828 C-365.15246463 757.09725745 -365.58075988 752.04872149 -366 747 C-364.68 747 -363.36 747 -362 747 C-361.92523438 746.07703125 -361.85046875 745.1540625 -361.7734375 744.203125 C-358.38188534 710.55360752 -340.25334842 678.98648049 -324.57943726 649.55891418 C-319.10564831 639.26090404 -313.93938585 628.82985634 -308.84576416 618.33972168 C-300.29181462 600.73343089 -291.61853455 583.18856289 -282.859375 565.68359375 C-282.41869816 564.80286509 -281.97802132 563.92213642 -281.52399063 563.01471901 C-277.08927666 554.15321522 -272.64953943 545.29423889 -268.20477772 536.43777084 C-256.89693406 513.91787536 -256.89693406 513.91787536 -245.93699646 491.22737122 C-242.3958338 483.76626044 -238.71977776 476.37525278 -235.01171875 468.99609375 C-234.56209778 468.10087572 -234.56209778 468.10087572 -234.10339355 467.18757248 C-231.34428572 461.69539861 -228.57989098 456.20589458 -225.8112793 450.71850586 C-224.57282549 448.26343006 -223.33665575 445.8072272 -222.10273743 443.34986877 C-220.96086966 441.07625317 -219.81578969 438.80424638 -218.66667175 436.5342865 C-215.28336933 429.78947127 -212.20980806 422.97433796 -209.30187988 416.01541138 C-207.69968096 412.3044017 -205.86162745 408.92141302 -203.8125 405.4375 C-194.97825134 390.11506656 -187.1199694 374.33786886 -179.55078125 358.359375 C-176.4923007 351.90925596 -173.30229441 345.53009282 -170.08496094 339.15820312 C-168.85337603 336.70833575 -167.63319971 334.25296004 -166.4140625 331.796875 C-162.07527083 323.06473017 -157.6997567 314.36119754 -153.125 305.75 C-144.48992732 289.45369607 -136.30299531 272.95594093 -128.625 256.1875 C-122.45935686 242.74793048 -115.74340589 229.6447674 -108.86865234 216.55957031 C-96.43973297 192.90059516 -84.29407937 169.11242582 -72.80957031 144.97949219 C-67.77784842 134.41103309 -62.56345831 123.95642931 -57.11741638 113.59521484 C-50.01229622 100.06388564 -43.1333409 86.42227937 -36.30883789 72.74804688 C-34.74990852 69.62448895 -33.18735416 66.50276059 -31.6238308 63.38150024 C-25.27960475 50.7126034 -18.96373823 38.03434092 -12.96714783 25.19580078 C-8.92439887 16.61817639 -4.45743638 8.41960205 0 0 Z " fill="#FDFA2D" transform="translate(865,0)"/>
<path d="M0 0 C1.98 0 3.96 0 6 0 C1.35842237 10.54974474 -3.28957442 20.97710585 -9 31 C-13.12459367 38.30656643 -16.76822247 45.71648167 -20.1875 53.375 C-25.68058117 65.48907025 -31.69466758 77.29894493 -37.81604004 89.10519409 C-42.67704364 98.48197443 -47.45893506 107.86988511 -51.9375 117.4375 C-54.72994343 123.39271655 -57.61596537 129.23963867 -60.83189392 134.97834778 C-66.65023528 145.37890354 -71.97218546 155.9565358 -77.16680527 166.67858505 C-90.68020519 194.55164675 -104.54696769 222.24796291 -118.40980238 249.94817221 C-121.07626362 255.27672312 -123.73970931 260.60677712 -126.40248621 265.93716991 C-129.0232049 271.1831723 -131.64550771 276.42838063 -134.26909506 281.67294896 C-135.81356072 284.76034675 -137.35753335 287.84798789 -138.90003586 290.93636703 C-150.35896174 313.8714566 -150.35896174 313.8714566 -156.4407959 325.08384705 C-158.82627562 329.54536926 -160.9828752 334.10554296 -163.125 338.6875 C-167.58534599 348.12284729 -172.20771829 357.4682231 -176.90109253 366.78964233 C-180.93811545 374.81150123 -184.86254033 382.87515796 -188.6875 391 C-192.53837629 399.15799082 -196.69917263 407.08051579 -201.09326172 414.95751953 C-207.50444759 426.45462294 -213.13273472 438.25401502 -218.66769409 450.19473267 C-218.96298004 450.83172089 -219.25826599 451.46870911 -219.5625 452.125 C-219.85867218 452.76400238 -220.15484436 453.40300476 -220.45999146 454.06137085 C-225.07759795 464.01106706 -229.83993923 473.87885317 -234.75 483.6875 C-235.32693604 484.8420166 -235.90387207 485.9965332 -236.49829102 487.18603516 C-239.32368715 492.8018626 -242.19733518 498.38602817 -245.15046692 503.93574524 C-252.91532333 518.54778313 -260.26206481 533.37241197 -267.65307617 548.17578125 C-269.68116229 552.23773033 -271.71292323 556.297829 -273.74569035 560.35743713 C-275.32129849 563.5050495 -276.89500992 566.6536071 -278.46813774 569.80245972 C-279.21751673 571.30188332 -279.96748688 572.80101163 -280.71806526 574.29983521 C-281.75807145 576.37731525 -282.79551562 578.45605462 -283.83227539 580.53515625 C-284.42166397 581.714729 -285.01105255 582.89430176 -285.61830139 584.10961914 C-287.05846164 586.96896656 -287.05846164 586.96896656 -288 590 C-289.32 590 -290.64 590 -292 590 C-291.89945313 590.93328125 -291.79890625 591.8665625 -291.6953125 592.828125 C-291.70920887 598.36999568 -294.43378343 602.90358017 -296.875 607.75 C-297.37459229 608.76715088 -297.87418457 609.78430176 -298.38891602 610.83227539 C-301.8629866 617.86003411 -305.47450892 624.81355031 -309.15991211 631.73242188 C-318.15797727 648.63926635 -326.46247856 665.90247948 -334.66650391 683.20507812 C-335.99655592 685.99278142 -337.34507416 688.77080491 -338.69921875 691.546875 C-356.67825371 728.50507236 -365.54074079 770.84589622 -352 811 C-345.51649032 829.74319842 -336.09744505 847.27650094 -327.17047119 864.93371582 C-325.11495152 869.0036468 -323.06858135 873.07817171 -321.02148438 877.15234375 C-318.35570826 882.45597052 -315.68786081 887.75852814 -313.01224613 893.05719948 C-312.32743658 894.4148225 -311.64392784 895.77310258 -310.96182156 897.1320858 C-309.31011805 900.42097735 -307.63988668 903.69756586 -305.92947388 906.95635986 C-305.60148332 907.58953943 -305.27349276 908.222719 -304.93556309 908.87508583 C-304.043725 910.59558622 -303.1423325 912.31112454 -302.24024963 914.02627563 C-301.00862421 916.9793219 -300.72092437 918.84557964 -301 922 C-300.07260765 922.14452103 -300.07260765 922.14452103 -299.1264801 922.29196167 C-297 923 -297 923 -294.97631836 926.32861328 C-294.24951305 927.8187912 -293.53845164 929.31670909 -292.83984375 930.8203125 C-292.45344727 931.62251724 -292.06705078 932.42472198 -291.66894531 933.25123596 C-290.41166028 935.86961899 -289.1746203 938.49703791 -287.9375 941.125 C-287.07691473 942.92616481 -286.21501324 944.72670132 -285.35180664 946.52661133 C-283.25409652 950.90799694 -281.17148307 955.29633345 -279.09472656 959.68768311 C-277.15645733 963.78175813 -275.20004228 967.86710844 -273.24536133 971.95336914 C-272.38211477 973.75801694 -271.51995012 975.56318272 -270.65893555 977.36889648 C-262.57353623 994.54120689 -262.57353623 994.54120689 -253.375 1011.125 C-250.13281795 1016.51352168 -247.67578329 1022.11159325 -245.19091797 1027.87329102 C-242.7029857 1033.57772187 -239.94049192 1039.07892538 -237 1044.5625 C-224.53089042 1067.86256418 -224.53089042 1067.86256418 -221 1080 C-222.98 1080 -224.96 1080 -227 1080 C-227.433125 1078.865625 -227.86625 1077.73125 -228.3125 1076.5625 C-228.869375 1075.386875 -229.42625 1074.21125 -230 1073 C-230.99 1072.67 -231.98 1072.34 -233 1072 C-233.33 1071.01 -233.66 1070.02 -234 1069 C-233.34 1069 -232.68 1069 -232 1069 C-232.54140625 1067.41058594 -232.54140625 1067.41058594 -233.09375 1065.7890625 C-233.56265793 1064.40109501 -234.03139931 1063.01307125 -234.5 1061.625 C-234.73847656 1060.92632813 -234.97695313 1060.22765625 -235.22265625 1059.5078125 C-237 1054.2265625 -237 1054.2265625 -237 1052 C-237.93247559 1051.85316772 -237.93247559 1051.85316772 -238.88378906 1051.70336914 C-241 1051 -241 1051 -242.859375 1047.74609375 C-243.50339843 1046.31603752 -244.13269533 1044.87929123 -244.75 1043.4375 C-245.44341567 1041.88977378 -246.13878043 1040.34291955 -246.8359375 1038.796875 C-247.19010742 1038.00345703 -247.54427734 1037.21003906 -247.90917969 1036.39257812 C-249.6343023 1032.60873712 -251.49903143 1028.89829747 -253.375 1025.1875 C-253.70854492 1024.52484131 -254.04208984 1023.86218262 -254.38574219 1023.17944336 C-255.25571739 1021.45223412 -256.12775427 1019.72606373 -257 1018 C-257.3609375 1017.22785156 -257.721875 1016.45570313 -258.09375 1015.66015625 C-259.30135027 1013.44795748 -260.92770881 1012.38152746 -263 1011 C-262.34 1010.67 -261.68 1010.34 -261 1010 C-261.25056152 1009.50331818 -261.50112305 1009.00663635 -261.75927734 1008.49490356 C-264.35929356 1003.3390154 -266.95373856 998.18035229 -269.54492188 993.02001953 C-270.51353746 991.09286456 -271.48358582 989.16642905 -272.45507812 987.24072266 C-273.84880141 984.47745291 -275.23740231 981.71166226 -276.625 978.9453125 C-277.06247559 978.0806839 -277.49995117 977.2160553 -277.95068359 976.32522583 C-278.35109863 975.52454681 -278.75151367 974.7238678 -279.1640625 973.89892578 C-279.51936035 973.1927713 -279.8746582 972.48661682 -280.24072266 971.75906372 C-281 970 -281 970 -281 968 C-281.66 967.67 -282.32 967.34 -283 967 C-284.26163916 964.53995091 -285.42654682 962.07913581 -286.56640625 959.5625 C-290.87301493 950.27254201 -295.38840332 941.09642791 -299.96484375 931.9375 C-300.3243877 931.21763916 -300.68393166 930.49777832 -301.05437088 929.75610352 C-302.91976142 926.02236182 -304.78713079 922.28961588 -306.65600586 918.55761719 C-308.55570931 914.76390502 -310.45178198 910.96839152 -312.34689236 907.17238331 C-319.08764763 893.67361753 -325.8296918 880.18379742 -332.912323 866.8601532 C-335.97397199 861.09087806 -338.85881826 855.25920314 -341.5625 849.3125 C-342.01375244 848.32266113 -342.46500488 847.33282227 -342.92993164 846.31298828 C-349.7939631 831.01807006 -355.90210261 815.27696307 -360 799 C-360.495 801.475 -360.495 801.475 -361 804 C-361.99 803.67 -362.98 803.34 -364 803 C-364.33 799.37 -364.66 795.74 -365 792 C-364.01 792 -363.02 792 -362 792 C-362.13277344 791.19820312 -362.26554687 790.39640625 -362.40234375 789.5703125 C-363.82298669 780.42427548 -364.4484227 771.39139252 -364.88671875 762.15673828 C-365.15246463 757.09725745 -365.58075988 752.04872149 -366 747 C-364.68 747 -363.36 747 -362 747 C-361.92523438 746.07703125 -361.85046875 745.1540625 -361.7734375 744.203125 C-358.38188534 710.55360752 -340.25334842 678.98648049 -324.57943726 649.55891418 C-319.10564831 639.26090404 -313.93938585 628.82985634 -308.84576416 618.33972168 C-300.29181462 600.73343089 -291.61853455 583.18856289 -282.859375 565.68359375 C-282.41869816 564.80286509 -281.97802132 563.92213642 -281.52399063 563.01471901 C-277.08927666 554.15321522 -272.64953943 545.29423889 -268.20477772 536.43777084 C-256.89693406 513.91787536 -256.89693406 513.91787536 -245.93699646 491.22737122 C-242.3958338 483.76626044 -238.71977776 476.37525278 -235.01171875 468.99609375 C-234.56209778 468.10087572 -234.56209778 468.10087572 -234.10339355 467.18757248 C-231.34428572 461.69539861 -228.57989098 456.20589458 -225.8112793 450.71850586 C-224.57282549 448.26343006 -223.33665575 445.8072272 -222.10273743 443.34986877 C-220.96086966 441.07625317 -219.81578969 438.80424638 -218.66667175 436.5342865 C-215.28336933 429.78947127 -212.20980806 422.97433796 -209.30187988 416.01541138 C-207.69968096 412.3044017 -205.86162745 408.92141302 -203.8125 405.4375 C-194.97825134 390.11506656 -187.1199694 374.33786886 -179.55078125 358.359375 C-176.4923007 351.90925596 -173.30229441 345.53009282 -170.08496094 339.15820312 C-168.85337603 336.70833575 -167.63319971 334.25296004 -166.4140625 331.796875 C-162.07527083 323.06473017 -157.6997567 314.36119754 -153.125 305.75 C-144.48992732 289.45369607 -136.30299531 272.95594093 -128.625 256.1875 C-122.45935686 242.74793048 -115.74340589 229.6447674 -108.86865234 216.55957031 C-96.43973297 192.90059516 -84.29407937 169.11242582 -72.80957031 144.97949219 C-67.77784842 134.41103309 -62.56345831 123.95642931 -57.11741638 113.59521484 C-50.01229622 100.06388564 -43.1333409 86.42227937 -36.30883789 72.74804688 C-34.74992674 69.62452546 -33.18738847 66.50283467 -31.62388897 63.38160801 C-25.17443319 50.50263405 -18.77887049 37.60212141 -12.63206482 24.57507324 C-8.688254 16.23959786 -4.40351839 8.10029926 0 0 Z " fill="#FCF612" transform="translate(865,0)"/>
<path d="M0 0 C2.78622523 0.01607578 5.57099623 0.00006228 8.35717773 -0.01904297 C23.27902446 -0.0373614 37.30562611 1.85655793 51.66772461 6.01611328 C52.53236328 6.26482178 53.39700195 6.51353027 54.2878418 6.76977539 C67.33166399 10.70158308 79.54888031 16.65490287 91.35522461 23.39111328 C91.35522461 24.71111328 91.35522461 26.03111328 91.35522461 27.39111328 C93.00522461 27.39111328 94.65522461 27.39111328 96.35522461 27.39111328 C96.35522461 28.38111328 96.35522461 29.37111328 96.35522461 30.39111328 C97.45157227 30.79716797 97.45157227 30.79716797 98.57006836 31.21142578 C125.12895444 42.46077164 139.36478194 74.94895193 151.21679688 99.10351562 C154.36191565 105.49023265 157.70499237 111.73425894 161.16772461 117.95361328 C167.91481619 130.11986427 173.84640187 142.66074483 179.83081055 155.21191406 C182.91752047 161.64931584 186.13736447 168.01862606 189.35522461 174.39111328 C190.35188216 176.37992993 191.34648758 178.36976144 192.34057617 180.35986328 C193.35223282 182.38512395 194.36544187 184.40960326 195.37866211 186.43408203 C196.63934873 188.95484151 197.89460504 191.47816292 199.14428711 194.00439453 C206.634505 209.11609593 214.41659802 224.08744164 222.31616211 238.98876953 C229.01336244 251.63154026 235.2455491 264.45539578 241.35522461 277.39111328 C249.81214944 295.27119886 258.60535483 312.97147304 267.49731445 330.63842773 C267.94994659 331.53942703 268.40257874 332.44042633 268.868927 333.36872864 C269.73086501 335.08426965 270.5944752 336.79897175 271.45993042 338.51274109 C274.35522461 344.27864564 274.35522461 344.27864564 274.35522461 345.39111328 C272.37522461 345.39111328 270.39522461 345.39111328 268.35522461 345.39111328 C268.025849 344.72347961 267.69647339 344.05584595 267.3571167 343.36798096 C264.2466035 337.06669622 261.12834016 330.76932226 258.00138474 324.47618484 C256.39418439 321.24093923 254.78998486 318.00427812 253.19262695 314.76416016 C251.65002369 311.63538695 250.09956072 308.51062513 248.54364777 305.38845062 C247.66530709 303.62081792 246.79508227 301.84915994 245.92498779 300.07745361 C245.11460052 298.45622589 245.11460052 298.45622589 244.2878418 296.80224609 C243.58168732 295.37661346 243.58168732 295.37661346 242.86126709 293.92218018 C241.30399465 291.3050158 239.59471412 289.43964615 237.35522461 287.39111328 C238.01522461 287.39111328 238.67522461 287.39111328 239.35522461 287.39111328 C235.39522461 279.47111328 231.43522461 271.55111328 227.35522461 263.39111328 C226.69522461 263.72111328 226.03522461 264.05111328 225.35522461 264.39111328 C224.36522461 263.73111328 223.37522461 263.07111328 222.35522461 262.39111328 C222.16772461 259.45361328 222.16772461 259.45361328 222.35522461 256.39111328 C222.35522461 252.72149624 221.28930615 250.91053666 219.63305664 247.63793945 C219.34366211 247.0619249 219.05426758 246.48591034 218.75610352 245.8924408 C217.79716944 243.98686708 216.82998676 242.08559904 215.86303711 240.18408203 C215.19458203 238.85785052 214.52677494 237.53129223 213.85958862 236.204422 C212.09970081 232.70745372 210.33335362 229.21379433 208.56494141 225.72113037 C205.74039349 220.14212376 202.92168128 214.56020464 200.1104393 208.97448158 C199.12911353 207.02846239 198.14265089 205.08510933 197.15579224 203.14189148 C196.54904121 201.93885921 195.94249376 200.73572424 195.33618164 199.5324707 C194.54342331 197.9671888 194.54342331 197.9671888 193.73464966 196.37028503 C192.37049389 193.42409066 191.31873965 190.48899319 190.35522461 187.39111328 C188.70522461 187.06111328 187.05522461 186.73111328 185.35522461 186.39111328 C185.24509033 185.36493896 185.13495605 184.33876465 185.02148438 183.28149414 C184.36632555 179.45593316 183.34496634 176.63938535 181.69506836 173.14501953 C180.88090454 171.40466431 180.88090454 171.40466431 180.05029297 169.62915039 C179.46498678 168.40370854 178.87912085 167.1785339 178.29272461 165.95361328 C177.69791786 164.6967636 177.1036004 163.43968225 176.50976562 162.18237305 C175.3385641 159.70870066 174.16068962 157.23838933 172.97631836 154.77099609 C171.59256231 151.88594809 170.22227389 148.99502881 168.85522461 146.10205078 C168.16950373 144.67671432 167.48218162 143.25214627 166.79272461 141.82861328 C166.49551514 141.19963135 166.19830566 140.57064941 165.89208984 139.92260742 C164.20599741 136.51809976 162.60825346 134.39133452 159.35522461 132.39111328 C160.01522461 132.06111328 160.67522461 131.73111328 161.35522461 131.39111328 C160.8518457 130.41464844 160.3484668 129.43818359 159.82983398 128.43212891 C157.92032908 124.7273905 156.01211661 121.02198757 154.10424805 117.31640625 C153.28622824 115.72801518 152.46788123 114.13979257 151.64916992 112.55175781 C147.39524498 104.29997958 143.16695785 96.03866681 139.03881836 87.72314453 C132.99533429 75.57723216 126.37148372 64.57948607 117.35522461 54.39111328 C116.91436523 53.88999023 116.47350586 53.38886719 116.01928711 52.87255859 C111.26276651 46.90226738 111.26276651 46.90226738 105.35522461 42.39111328 C105.35522461 41.73111328 105.35522461 41.07111328 105.35522461 40.39111328 C104.82928711 40.15779297 104.30334961 39.92447266 103.76147461 39.68408203 C100.58120223 37.9752019 97.75566695 35.83871078 94.85522461 33.70361328 C82.5416434 24.82511701 68.55442936 16.08600774 53.35522461 13.39111328 C51.71553711 12.71048828 51.71553711 12.71048828 50.04272461 12.01611328 C18.51590337 -0.16470401 -22.42484647 5.19917047 -53.64477539 15.39111328 C-54.30477539 15.72111328 -54.96477539 16.05111328 -55.64477539 16.39111328 C-55.64477539 17.05111328 -55.64477539 17.71111328 -55.64477539 18.39111328 C-57.62477539 18.88611328 -57.62477539 18.88611328 -59.64477539 19.39111328 C-59.64477539 18.73111328 -59.64477539 18.07111328 -59.64477539 17.39111328 C-80.27200462 26.65252082 -105.31645414 38.23635032 -114.64477539 60.39111328 C-115.96477539 60.39111328 -117.28477539 60.39111328 -118.64477539 60.39111328 C-118.91547852 61.25736328 -119.18618164 62.12361328 -119.46508789 63.01611328 C-120.61343194 66.30144196 -121.95792144 69.28294621 -123.51977539 72.39111328 C-123.97259888 73.29313477 -123.97259888 73.29313477 -124.43457031 74.21337891 C-126.26051713 77.80705006 -128.16438267 81.3467768 -130.14086914 84.85986328 C-140.27103818 102.90958861 -148.91993709 121.63393218 -157.64477539 140.39111328 C-157.94941711 141.04591675 -158.25405884 141.70072021 -158.56793213 142.37536621 C-160.94143737 147.47913312 -163.30990119 152.58522232 -165.671875 157.69433594 C-170.64896412 168.44584121 -175.73062445 179.14700898 -180.8119812 189.84951782 C-185.82255344 200.40514267 -190.79854786 210.97523297 -195.70727539 221.57861328 C-199.27107149 229.27540388 -202.83617528 236.97107351 -206.45727539 244.64111328 C-206.76995361 245.30651123 -207.08263184 245.97190918 -207.40478516 246.6574707 C-209.33116023 250.72426253 -211.32697403 254.75185991 -213.35479736 258.76908875 C-218.18887084 268.35865117 -222.72932397 278.06856613 -227.20727539 287.82861328 C-227.98707559 289.52309859 -228.76702602 291.21751476 -229.54711914 292.91186523 C-235.42265845 305.68411792 -241.25229892 318.4773254 -247.04931641 331.28540039 C-247.49459435 332.2683609 -247.49459435 332.2683609 -247.9488678 333.2711792 C-248.74208013 335.02267475 -249.53428843 336.77462492 -250.32641602 338.52661133 C-251.39100441 340.83972534 -252.4868538 343.12374604 -253.64477539 345.39111328 C-255.62477539 345.39111328 -257.60477539 345.39111328 -259.64477539 345.39111328 C-259.1459082 344.34439453 -258.64704102 343.29767578 -258.13305664 342.21923828 C-252.86403168 331.14013326 -247.68199536 320.02235726 -242.52832031 308.88916016 C-239.15673756 301.61620974 -235.73829998 294.36827192 -232.26977539 287.14111328 C-228.75054959 279.80594401 -225.40727681 272.41727868 -222.21508789 264.93408203 C-221.08512785 262.38464483 -219.91743402 259.92149985 -218.65258789 257.44189453 C-216.34870837 252.89170506 -214.48583719 248.20073875 -212.64086914 243.44970703 C-210.08027812 237.05429723 -206.9684795 230.94687667 -203.8659668 224.80322266 C-199.98730645 217.120067 -196.22821653 209.37753808 -192.45727539 201.64111328 C-192.04403015 200.79350433 -191.63078491 199.94589539 -191.20501709 199.07260132 C-184.36193302 185.02475598 -177.68958848 170.91004792 -171.16870117 156.70947266 C-163.47011079 139.94573659 -155.67252688 123.23630685 -147.60522461 106.64697266 C-145.05338482 101.39558896 -142.51224419 96.14369307 -140.07836914 90.83642578 C-132.03764148 73.31486557 -121.85632479 58.49031365 -108.64477539 44.39111328 C-107.97768555 43.6730249 -107.97768555 43.6730249 -107.29711914 42.94042969 C-101.66243238 36.91924109 -95.82973878 31.48825897 -89.14477539 26.64111328 C-88.26366089 25.99529297 -88.26366089 25.99529297 -87.36474609 25.33642578 C-84.08212599 23.04328998 -82.77967971 22.39111328 -78.64477539 22.39111328 C-78.59724121 21.78589844 -78.54970703 21.18068359 -78.50073242 20.55712891 C-77.64477539 18.39111328 -77.64477539 18.39111328 -75.19897461 16.99072266 C-74.12663574 16.57628906 -73.05429688 16.16185547 -71.94946289 15.73486328 C-70.76578125 15.27144531 -69.58209961 14.80802734 -68.36254883 14.33056641 C-67.08205835 13.84959167 -65.80112468 13.36979539 -64.51977539 12.89111328 C-63.22311493 12.39596109 -61.92656548 11.90051813 -60.63012695 11.40478516 C-52.0749995 8.16381393 -43.59496823 5.34894895 -34.64477539 3.39111328 C-33.52095459 3.13056152 -32.39713379 2.87000977 -31.23925781 2.6015625 C-20.77979903 0.38034268 -10.67585909 -0.07303894 0 0 Z " fill="#FCF612" transform="translate(1393.644775390625,734.60888671875)"/>
<path d="M0 0 C4.67726243 3.48491803 7.31545574 6.69072577 9.74899292 12.02961731 C10.08055102 12.72340919 10.41210912 13.41720108 10.75371444 14.13201696 C11.47125801 15.63392766 12.18310447 17.13857093 12.88979101 18.64562058 C14.40117188 21.85075046 15.96240674 25.03055827 17.52280843 28.21204001 C18.79191392 30.80044383 20.05492608 33.39174572 21.31652641 35.98381519 C33.43823692 60.87672787 45.76424232 85.66435599 58.16012335 110.42164063 C60.88039502 115.85575722 63.5982664 121.29107418 66.31643677 126.72624207 C71.43278489 136.95587487 76.55116216 147.18449086 81.67034352 157.41270608 C87.48220078 169.02515245 93.29172622 180.63876485 99.10107207 192.25246775 C109.45365096 212.94864076 119.80810044 233.64387701 130.16463137 254.33807266 C131.35563896 256.71806477 132.54646534 259.09814749 133.73726654 261.47824287 C135.25424691 264.51019625 136.77218357 267.54166832 138.2907486 270.57282829 C139.01019284 272.00970587 139.72963227 273.44658586 140.44906616 274.88346863 C140.93332229 275.84932128 140.93332229 275.84932128 141.42736137 276.8346861 C143.93570438 281.84621216 146.35377013 286.8956718 148.734375 291.96875 C149.98396094 294.59521585 151.23658463 297.22022026 152.48925781 299.84521484 C153.32843932 301.61230619 154.16180008 303.38217377 154.98925781 305.15478516 C167.96754418 332.90906055 185.8288267 352.94672808 215 364 C242.61134167 372.8927612 272.69604498 371.16528611 301.34301758 370.96337891 C309.57846286 370.91583702 317.69973542 370.99657394 325.90991211 371.74169922 C331.69984764 372.22568056 337.50686319 372.36887297 343.3125 372.5625 C344.54162109 372.60568359 345.77074219 372.64886719 347.03710938 372.69335938 C350.02466486 372.79798194 353.01228143 372.90016327 356 373 C356 373.66 356 374.32 356 375 C341.16912017 375.07044941 326.33825342 375.12316255 311.50724125 375.15543652 C304.61910939 375.17082806 297.7310822 375.19176759 290.84301758 375.22631836 C284.1840059 375.25970393 277.5251249 375.27690052 270.86602592 375.28463173 C268.33737932 375.29013476 265.808738 375.30087965 263.28013802 375.31719017 C230.49863194 375.52005453 203.11422582 368.72266515 177 348 C176.2678125 347.44699219 175.535625 346.89398438 174.78125 346.32421875 C159.82893029 334.36829644 152.23814571 313.66756283 144.25390625 296.828125 C140.38986946 288.69254011 136.44225168 280.59786987 132.5 272.5 C127.61087439 262.45391578 122.74112209 252.39984826 117.9375 242.3125 C112.69014805 231.30958268 107.33493714 220.37662078 101.62376213 209.60568905 C95.81958636 198.656731 90.22327631 187.61000067 84.6796875 176.52734375 C83.72670779 174.62461196 82.77367311 172.7219077 81.82058716 170.81922913 C79.84106361 166.86610847 77.86314437 162.91218998 75.88623047 158.95776367 C73.37815676 153.94151443 70.86457218 148.9280488 68.34959221 143.91525936 C66.38546943 139.99823287 64.42506693 136.07935286 62.46564102 132.15997505 C61.54134211 130.31254049 60.61577796 128.46573826 59.68880844 126.61964226 C54.78050318 116.8407271 50.05103417 107.02650943 45.66177464 97.00296593 C43.4382952 91.93670556 41.060475 87.01030139 38.39453125 82.16015625 C34.15130609 74.25584563 30.08249236 66.27186528 26.07421875 58.24609375 C25.6239501 57.34498808 25.6239501 57.34498808 25.16458511 56.42567825 C23.3157316 52.72454853 21.46991921 49.02190913 19.62506104 45.31878662 C18.05296334 42.16425455 16.47853226 39.01088754 14.90429688 35.85742188 C8.89237741 23.81311092 8.89237741 23.81311092 6.46395874 18.92306519 C5.49270227 16.98377148 4.50842911 15.05093925 3.51089478 13.12503052 C3.05459686 12.23951508 2.59829895 11.35399963 2.12817383 10.44165039 C1.72423904 9.66890274 1.32030426 8.89615509 0.90412903 8.09999084 C-0.29001754 5.32638577 -0.39145893 2.97508787 0 0 Z " fill="#FCF714" transform="translate(1215,108)"/>
<path d="M0 0 C0.33 0 0.66 0 1 0 C3.13877329 11.75005081 -3.64501828 23.56220094 -10.06640625 33.0546875 C-12.42636991 36.64946042 -14.02035258 40.36142481 -15.6875 44.3125 C-18.24133596 50.21664466 -20.95491261 55.9315286 -24.0625 61.5625 C-28.17369204 69.05483384 -31.64251851 76.80184771 -35.10894775 84.60519409 C-40.33596983 96.36222983 -45.8547914 107.79653295 -52.1875 119 C-61.62098504 135.69793425 -70.7771751 152.8018551 -77 171 C-78.32 171 -79.64 171 -81 171 C-81.1252002 171.88486084 -81.1252002 171.88486084 -81.25292969 172.78759766 C-82.45602671 179.97112451 -85.0004231 185.89255622 -88.25 192.375 C-88.77650146 193.44862793 -89.30300293 194.52225586 -89.84545898 195.62841797 C-91.54965592 199.09274446 -93.27224576 202.54736711 -95 206 C-95.57959473 207.16080078 -96.15918945 208.32160156 -96.75634766 209.51757812 C-99.1172516 214.24330887 -101.48117133 218.96749769 -103.85205078 223.68823242 C-108.91710333 233.78548388 -113.80992018 243.95813126 -118.65234375 254.16357422 C-122.49000535 262.24073952 -126.36708435 270.29905939 -130.24707031 278.35595703 C-131.4992246 280.95715743 -132.747951 283.55997869 -133.99511719 286.16357422 C-142.15998031 303.20208109 -150.37155538 320.14978557 -159.66650391 336.61010742 C-161.68025282 340.21914955 -163.61730436 343.86944298 -165.55688477 347.51879883 C-167.66510559 351.14354054 -170.06947091 354.00286797 -173 357 C-173.66 357 -174.32 357 -175 357 C-176.35996064 351.69466957 -176.35996064 351.69466957 -174.75756836 348.60229492 C-173.83923218 347.45917847 -173.83923218 347.45917847 -172.90234375 346.29296875 C-169.0796985 341.22296393 -166.30071848 336.02472799 -163.5625 330.3125 C-162.60712052 328.3585665 -161.6500853 326.40544172 -160.69140625 324.453125 C-160.00135498 323.04450195 -160.00135498 323.04450195 -159.29736328 321.60742188 C-157.60850908 318.21318724 -155.81675176 314.89010282 -154 311.5625 C-150.97941797 305.9631081 -148.21241536 300.28292972 -145.50390625 294.52734375 C-140.31137594 283.58590208 -134.90471164 272.75743471 -129.46484375 261.9375 C-128.60509475 260.22603746 -127.74536383 258.51456585 -126.88565063 256.80308533 C-123.33130329 249.7297555 -119.7741397 242.65785606 -116.20922852 235.58984375 C-113.99983028 231.20872948 -111.79632214 226.82469556 -109.59652901 222.43875122 C-108.76589749 220.78549869 -107.9330531 219.1333559 -107.09788322 217.48239136 C-105.93722355 215.18762038 -104.78410175 212.88920476 -103.63256836 210.58984375 C-103.12225822 209.58775879 -103.12225822 209.58775879 -102.60163879 208.56542969 C-100.55509372 204.4549355 -99.25954855 200.42988818 -98 196 C-96.81904249 194.42538998 -95.63561224 192.85244656 -94.4296875 191.296875 C-92.09208362 187.54138024 -90.65263539 183.38460394 -89.14355469 179.2421875 C-86.83556412 173.05386807 -86.83556412 173.05386807 -84 171 C-83.34 171 -82.68 171 -82 171 C-81.75378906 169.70835937 -81.50757813 168.41671875 -81.25390625 167.0859375 C-80.10402077 161.93308235 -78.17438225 157.3895974 -75.9375 152.625 C-75.54336914 151.77156006 -75.14923828 150.91812012 -74.74316406 150.03881836 C-73.91778595 148.25600817 -73.08847637 146.47501319 -72.25537109 144.69580078 C-71.01086759 142.0233372 -69.79402657 139.33968273 -68.58203125 136.65234375 C-67.80550986 134.95535262 -67.02819542 133.25872411 -66.25 131.5625 C-65.89800537 130.77633301 -65.54601074 129.99016602 -65.18334961 129.18017578 C-64.83925049 128.44138184 -64.49515137 127.70258789 -64.140625 126.94140625 C-63.84704102 126.29888916 -63.55345703 125.65637207 -63.25097656 124.99438477 C-62 123 -62 123 -59.54443359 120.68164062 C-56.63848649 117.6189921 -55.57930267 115.1070887 -54.1484375 111.15234375 C-51.09963968 103.04613939 -47.44112703 95.33062538 -43.625 87.5625 C-42.99693366 86.27301146 -42.36932913 84.98329789 -41.7421875 83.69335938 C-36.19337339 72.30041914 -30.57159324 60.94135198 -24.74130249 49.68959045 C-23.30303145 46.91078461 -21.87617357 44.12620017 -20.45068359 41.34082031 C-19.72106888 39.92265863 -18.9858504 38.50736864 -18.24560547 37.09472656 C-17.15659791 35.01317586 -16.08822514 32.92214516 -15.0234375 30.828125 C-14.6882309 30.19900208 -14.35302429 29.56987915 -14.00765991 28.92169189 C-12.97766283 26.95472566 -12.97766283 26.95472566 -12 24 C-12.65809429 21.60174515 -12.65809429 21.60174515 -14 20 C-12.68 20 -11.36 20 -10 20 C-6.7 13.4 -3.4 6.8 0 0 Z " fill="#FBF613" transform="translate(1919,77)"/>
<path d="M0 0 C1.98 0 3.96 0 6 0 C12.24111007 12.31820691 18.46568987 24.64464484 24.67164421 36.98060322 C27.55409526 42.70904478 30.44167349 48.43477595 33.34130859 54.15454102 C36.14176196 59.67914124 38.92830102 65.21055781 41.70550919 70.74687767 C42.76508669 72.85314355 43.82957321 74.95694762 44.89913559 77.05816078 C46.40157242 80.01188964 47.8859828 82.97405695 49.36669922 85.9387207 C50.02916656 87.225905 50.02916656 87.225905 50.70501709 88.53909302 C53.68748812 94.57461366 55.10842672 100.3360757 56 107 C51.20089956 104.73850326 49.45005117 101.77027936 47.32421875 97.1171875 C46.82096321 96.06469315 46.82096321 96.06469315 46.30754089 94.99093628 C45.57798631 93.46476647 44.85408212 91.93588562 44.13519287 90.40466309 C42.59116 87.13395998 40.99767532 83.88835384 39.4050293 80.64111328 C38.11143023 78.00280257 36.82378275 75.3616589 35.53759766 72.71972656 C25.93204647 52.9967228 16.21589609 33.33334465 6.35083008 13.73876953 C5.92231247 12.88596405 5.49379486 12.03315857 5.05229187 11.1545105 C4.24995209 9.5580194 3.44592903 7.96237278 2.63996887 6.3677063 C0 1.11236277 0 1.11236277 0 0 Z " fill="#FBF512" transform="translate(1159,0)"/>
<path d="M0 0 C0.99 0.33 1.98 0.66 3 1 C1.31424362 6.3944204 -2.02023873 12.07451867 -6.84375 15.19140625 C-7.75640625 15.65353516 -7.75640625 15.65353516 -8.6875 16.125 C-12.18803071 17.68054891 -12.18803071 17.68054891 -13.30859375 20.83984375 C-15.33516007 24.62619977 -17.78842283 26.30839689 -21.375 28.4375 C-21.9927832 28.81729004 -22.61056641 29.19708008 -23.24707031 29.58837891 C-25.15283947 30.74708267 -27.07265227 31.87761505 -29 33 C-29.58233398 33.34272949 -30.16466797 33.68545898 -30.76464844 34.03857422 C-42.02785137 40.60391272 -50.93008755 43.60633614 -64 43 C-63.46484375 41.1328125 -63.46484375 41.1328125 -62 39 C-59.48988667 38.12402784 -57.1386021 37.47103705 -54.5625 36.875 C-39.60140173 32.92617191 -26.41491143 25.38282179 -15 15 C-13.8798653 14.07739443 -12.75568318 13.15964737 -11.625 12.25 C-7.26511806 8.51295834 -3.50647256 4.5454274 0 0 Z " fill="#FDF912" transform="translate(1741,436)"/>
<path d="M0 0 C1.32 0 2.64 0 4 0 C4 3.96 4 7.92 4 12 C3.01 11.67 2.02 11.34 1 11 C0.67 7.37 0.34 3.74 0 0 Z " fill="#F4EE24" transform="translate(500,792)"/>
<path d="M0 0 C1.98 0.99 1.98 0.99 4 2 C4 3.98 4 5.96 4 8 C2.68 7.34 1.36 6.68 0 6 C0 4.02 0 2.04 0 0 Z " fill="#F7F326" transform="translate(1616,991)"/>
<path d="M0 0 C1.32 0 2.64 0 4 0 C3.67 1.32 3.34 2.64 3 4 C2.01 3.67 1.02 3.34 0 3 C0 2.01 0 1.02 0 0 Z " fill="#F7F224" transform="translate(499,740)"/>
<path d="M0 0 C1.32 0.33 2.64 0.66 4 1 C3.01 1.99 2.02 2.98 1 4 C0.67 2.68 0.34 1.36 0 0 Z " fill="#494400" transform="translate(1636,97)"/>
<path d="" fill="#F2F228" transform="translate(0,0)"/>
</svg>
